<!--?xml version="1.0" standalone="no"?--><svg version="1.0" xmlns="http://www.w3.org/2000/svg" width="300.000000pt" height="153.000000pt" viewBox="0 0 300.000000 153.000000" preserveAspectRatio="xMidYMid meet">
<metadata>
  <rdf:rdf xmlns:rdf="http://www.w3.org/1999/02/22-rdf-syntax-ns#" xmlns:rdfs="http://www.w3.org/2000/01/rdf-schema#" xmlns:dc="http://purl.org/dc/elements/1.1/">
    <rdf:description dc:title="shoe silhouette" dc:publisher="Hiox" dc:date="2015-04-28" dc:format="image/svg+xml" dc:language="en">
      <dc:creator>
        <rdf:bag>
          <rdf:li>svgimages.com</rdf:li>
        </rdf:bag>
      </dc:creator>
    </rdf:description>
  </rdf:rdf>
</metadata>
<g transform="translate(0.000000,153.000000) scale(0.100000,-0.100000)" fill="#010101" stroke="none">
<path d="M1101 1477 c-22 -29 -61 -68 -87 -87 -49 -37 -77 -71 -88 -107 -6
-18 6 -36 59 -93 36 -39 65 -75 65 -80 0 -16 -93 -90 -146 -116 -70 -34 -148
-40 -257 -20 -169 32 -257 80 -257 139 0 43 -19 108 -37 129 -8 9 -28 21 -44
27 -50 17 -78 -20 -177 -239 -145 -319 -146 -323 -118 -524 13 -89 13 -102 -2
-124 -12 -19 -13 -28 -4 -43 7 -11 12 -61 12 -126 0 -60 4 -114 8 -121 14 -21
456 -46 1382 -77 666 -23 732 -22 1000 21 337 53 542 98 578 127 30 23 -2 267
-47 355 -33 65 -53 73 -256 101 -149 21 -188 30 -207 47 -39 36 -47 37 -71 8
-33 -38 -51 -24 -42 32 8 55 -9 65 -58 35 -37 -23 -82 -28 -93 -10 -3 6 8 25
25 43 l32 33 -25 17 c-35 23 -67 20 -130 -11 -60 -29 -86 -26 -86 11 0 25 41
66 66 66 20 0 17 17 -3 25 -48 18 -78 14 -141 -21 -35 -20 -70 -33 -78 -30
-32 12 15 88 66 108 25 9 25 10 5 24 -24 18 -37 16 -138 -27 -71 -31 -78 -32
-93 -17 -30 30 -11 63 51 88 30 12 55 26 55 30 0 8 -45 30 -63 30 -7 0 -43
-20 -80 -45 -94 -63 -113 -69 -137 -45 -35 35 -27 52 55 116 28 21 52 40 54
41 3 2 -2 11 -11 20 -15 14 -25 11 -120 -46 -115 -69 -151 -76 -156 -29 -5 44
13 63 100 108 l82 43 -35 29 c-92 77 -333 238 -356 238 -7 0 -30 -24 -52 -53z
m-429 -1107 c229 -13 728 -54 988 -82 253 -28 567 -29 805 -4 151 16 160 16
172 -1 18 -23 10 -27 -112 -49 -87 -16 -151 -19 -480 -19 -359 0 -391 2 -570
27 -187 27 -403 42 -745 53 -326 10 -665 28 -687 36 -15 6 -20 14 -16 28 5 20
12 21 237 21 127 0 310 -5 408 -10z" id="node1" class="node"></path>
</g>
<g transform="translate(0.000000,153.000000) scale(0.100000,-0.100000)" fill="#FFFFFF" stroke="none">



<path d="M27 359 c-4 -14 1 -22 16 -28 22 -8 361 -26 687 -36 342 -11 558 -26
745 -53 179 -25 211 -27 570 -27 329 0 393 3 480 19 122 22 130 26 112 49 -12
17 -21 17 -172 1 -238 -25 -552 -24 -805 4 -538 57 -1054 92 -1396 92 -225 0
-232 -1 -237 -21z" id="node5" class="node"></path>


</g>
</svg>