<?xml version="1.0" encoding="utf-8"?>
<!-- Generator: Adobe Illustrator 12.0.0, SVG Export Plug-In . SVG Version: 6.00 Build 51448)  -->
<!DOCTYPE svg PUBLIC "-//W3C//DTD SVG 1.1//EN" "http://www.w3.org/Graphics/SVG/1.1/DTD/svg11.dtd" [
	<!ENTITY ns_svg "http://www.w3.org/2000/svg">
	<!ENTITY ns_xlink "http://www.w3.org/1999/xlink">
]>
<svg  version="1.1" id="Layer_1" xmlns="&ns_svg;" xmlns:xlink="&ns_xlink;" width="470.027" height="792"
	 viewBox="0 0 470.027 792" overflow="visible" enable-background="new 0 0 470.027 792" xml:space="preserve">
<g id="Suit_group">
	<path id="White_shirt" fill="#FFFFFF" d="M288.134,55.272c9.771,10.075,11.243,26.902,11.243,45.486
		c0,17.28-3.552,35.581-7.41,49.319c-7.135,25.413-18.712,48.389-32.197,67.208c-1.948,2.718-3.62,5.61-6.134,7.667
		c-0.151-13.443-0.511-26.902-0.511-39.865c0-6.868,0.333-13.535-0.257-19.932c-2.797-30.415-8.846-59.484-14.309-86.885
		c2.32-2.959,4.963-5.6,7.921-7.922c7.482,7.169,13.233,16.069,17.633,26.322c-0.902-9.6-5.063-17.699-9.2-26.066
		C250,60.668,246.166,48.92,235.747,45.05c8.348-1.687,15.376-5.197,23.512-9.455c4.83-2.529,10.642-5.846,15.588-8.944
		c1.398-0.876,4.543-2.571,4.599-3.833c0.076-1.689-1.952-2.747-3.582-3.482l9.461,4.25c1.016,3.839,1.994,8.341,3.065,13.032
		C289.896,43.214,292.753,51.267,288.134,55.272z M237.794,31.25c-0.917-0.051-1.856-0.079-2.78-0.089
		c-0.924,0.01-1.861,0.038-2.778,0.089c-5.914,0.328-13.169,1.711-12.521,7.333c2.37,1.537,12.398,5.187,15.3,5.187
		c2.902,0,12.928-3.65,15.302-5.187C250.96,32.961,243.707,31.578,237.794,31.25z M181.894,55.272
		c-9.771,10.075-11.244,26.902-11.244,45.486c0,17.28,3.552,35.581,7.411,49.319c7.135,25.413,18.713,48.389,32.198,67.208
		c1.946,2.718,3.62,5.61,6.133,7.667c0.15-13.443,0.511-26.902,0.511-39.865c0-6.868-0.332-13.535,0.256-19.932
		c2.797-30.415,8.847-59.484,14.311-86.885c-2.321-2.959-4.963-5.6-7.922-7.922c-7.482,7.169-13.233,16.069-17.633,26.322
		c0.901-9.6,5.062-17.699,9.2-26.066c4.912-9.936,8.747-21.684,19.165-25.554c-8.346-1.687-15.374-5.197-23.51-9.455
		c-4.832-2.529-10.643-5.846-15.589-8.944c-1.397-0.876-4.544-2.571-4.6-3.833c-0.074-1.689,1.952-2.747,3.583-3.482l-9.46,4.25
		c-1.017,3.839-1.995,8.341-3.066,13.032C180.131,43.214,177.272,51.267,181.894,55.272z M274.078,18.474
		c-0.745-0.75-3.286-2.996-4.822-3.833c-8.814-4.357-20.41-9.711-33.986-9.711h-0.51c-13.579,0-25.174,5.354-33.988,9.711
		c-1.537,0.838-4.077,3.084-4.823,3.833c-0.237,0.476-3.402,2.612-3.322,4.6c1.765,1.898,4.459,2.866,6.645,4.344
		c7.782-8.107,20.207-14.301,35.743-14.31c15.536,0.009,27.959,6.202,35.742,14.31c2.188-1.478,4.881-2.446,6.646-4.344
		C277.481,21.086,274.317,18.949,274.078,18.474z"/>
	<path id="Suit_2_" d="M468.548,324.357c-3.035-34.489-7.962-67.723-12.777-100.429c-1.931-13.116-2.681-26.384-9.456-36.032
		c1.494-2.254,3.014-4.483,4.6-6.644c-2.51-3.281-5.908-5.675-8.687-8.688c1.406-2.579,4.135-3.927,4.343-7.156
		c0.095-1.451-0.811-3.332-1.277-5.111c-3.148-11.997-6.131-24.447-8.943-35.775c-2.642-10.64-5.579-20.204-7.156-31.177
		c-0.542-3.778-1.036-7.567-2.555-10.477c-3.272-6.269-10.57-6.605-18.91-7.922c-26.371-4.165-51.149-8.956-72.574-18.144
		c-3.565-1.529-7.658-2.807-10.477-4.856c-1.487-1.079-2.756-2.959-4.09-4.343c-9.839-10.215-21.396-18.153-35.264-24.021
		c1.016,3.839,1.995,8.341,3.065,13.032c1.506,6.598,4.363,14.65-0.256,18.655c9.771,10.075,11.245,26.902,11.245,45.486
		c0,17.28-3.553,35.581-7.411,49.319c-7.136,25.413-18.713,48.389-32.198,67.208c-1.947,2.718-3.62,5.61-6.134,7.666
		c-0.15-13.442-0.51-26.902-0.51-39.864c0-6.869,0.333-13.535-0.257-19.932c-2.798-30.415-8.847-59.484-14.311-86.885
		c2.321-2.959,4.963-5.6,7.923-7.922c7.482,7.169,13.233,16.069,17.632,26.322c-0.902-9.6-5.062-17.699-9.199-26.066
		c-4.913-9.936-8.748-21.684-19.166-25.554c8.346-1.687,15.376-5.197,23.512-9.455c4.831-2.529,10.641-5.846,15.587-8.944
		c1.398-0.876,4.544-2.571,4.6-3.833c0.11-2.488-4.349-3.611-5.366-4.344c0.237,0.476,3.401,2.612,3.322,4.6
		c-1.766,1.898-4.459,2.866-6.646,4.344c-7.782-8.107-20.207-14.301-35.743-14.31c-15.536,0.009-27.961,6.202-35.743,14.31
		c-2.186-1.478-4.88-2.446-6.645-4.344c-0.08-1.988,3.085-4.125,3.322-4.6c-1.018,0.733-5.478,1.856-5.367,4.344
		c0.056,1.262,3.202,2.957,4.6,3.833c4.946,3.098,10.757,6.415,15.589,8.944c8.136,4.258,15.164,7.769,23.511,9.455
		c-10.419,3.871-14.254,15.618-19.166,25.554c-4.139,8.367-8.299,16.467-9.2,26.066c4.399-10.253,10.15-19.153,17.633-26.322
		c2.959,2.322,5.601,4.962,7.922,7.922c-5.464,27.4-11.514,56.47-14.311,86.885c-0.588,6.397-0.256,13.063-0.256,19.932
		c0,12.961-0.36,26.421-0.511,39.864c-2.513-2.056-4.187-4.948-6.133-7.666c-13.485-18.818-25.063-41.794-32.198-67.208
		c-3.859-13.738-7.411-32.039-7.411-49.319c0-18.584,1.474-35.411,11.244-45.486c-4.621-4.005-1.763-12.058-0.256-18.655
		c1.071-4.69,2.05-9.192,3.066-13.032c-13.868,5.868-25.425,13.805-35.266,24.021c-1.333,1.384-2.602,3.265-4.088,4.343
		c-2.82,2.05-6.912,3.327-10.477,4.856C113.448,65.993,88.669,70.784,62.3,74.949c-8.342,1.317-15.64,1.653-18.91,7.922
		c-1.519,2.909-2.013,6.699-2.556,10.477c-1.577,10.973-4.515,20.537-7.155,31.177c-2.813,11.328-5.795,23.778-8.944,35.775
		c-0.467,1.779-1.372,3.66-1.277,5.111c0.21,3.229,2.938,4.577,4.344,7.156c-2.779,3.012-6.178,5.406-8.688,8.688
		c1.588,2.161,3.106,4.39,4.601,6.644c-6.776,9.647-7.524,22.916-9.456,36.032C9.44,256.634,4.515,289.868,1.48,324.357
		c-0.622,7.073-1.996,14.546-1.277,21.21c0.533,4.951,3.803,9.966,6.388,14.311c6.849,11.512,16.38,23.195,24.789,32.455
		c6.107,6.724,12.957,12.941,19.675,18.654c7.003,5.952,14.707,10.831,22.744,15.332c-3.856,51.086-10.685,99.198-17.377,147.448
		c5.685,5.109,14.109,7.676,23.511,9.2C81.835,658.25,93.411,724.176,103.441,792h263.145
		c10.029-67.823,21.606-133.75,23.51-209.032c9.4-1.524,17.825-4.091,23.51-9.2c-6.691-48.25-13.521-96.362-17.376-147.448
		c8.036-4.501,15.742-9.38,22.744-15.332c6.717-5.713,13.567-11.93,19.676-18.654c8.407-9.26,17.938-20.943,24.787-32.455
		c2.584-4.345,5.854-9.359,6.388-14.311C470.542,338.903,469.171,331.431,468.548,324.357z M219.714,38.583
		c-0.647-5.622,6.607-7.006,12.521-7.333c0.917-0.051,1.854-0.079,2.778-0.089c0.924,0.01,1.862,0.038,2.778,0.089
		c5.915,0.328,13.168,1.711,12.523,7.333c-2.373,1.537-12.399,5.187-15.302,5.187C232.112,43.771,222.084,40.12,219.714,38.583z
		 M269.256,14.64c-8.814-4.357-20.409-9.711-33.987-9.711c-0.085,0-0.425,0-0.51,0c-13.578,0-25.173,5.354-33.987,9.711
		c4.502-3.189,9.386-6.099,14.566-8.689c5.512-2.754,11.896-6.035,19.676-5.95c7.78-0.085,14.165,3.196,19.677,5.95
		C259.87,8.541,264.755,11.451,269.256,14.64z"/>
</g>
</svg>
