<?xml version="1.0" encoding="utf-8"?>
<!-- Generator: Adobe Illustrator 19.2.0, SVG Export Plug-In . SVG Version: 6.00 Build 0)  -->
<svg version="1.1" id="Layer_1" xmlns="http://www.w3.org/2000/svg" xmlns:xlink="http://www.w3.org/1999/xlink" x="0px" y="0px"
	 viewBox="0 0 558.1 589.4" style="enable-background:new 0 0 558.1 589.4;" xml:space="preserve">
<style type="text/css">
	.st0{fill:#735049;}
</style>
<g>
	<path class="st0" d="M197.2,421.3c-1.4-3.3-4.2-14.7-2.6-13.8c6,3.3,17.5,37.7,37,51.3c29.3,20.5,46.5,18.6,64.4,9.3
		c13.4-6.9,25.8-27,33.7-36.1c2.5-2.4-3.3,9.9-7.7,18.3c-5.5,12.4-15.4,22.4-27.8,27.9c-21.4,8.6-45.2,6.2-70.6-14.3
		C213.2,455.4,206.9,444,197.2,421.3z"/>
	<path class="st0" d="M116.6,277.9c4.5-0.4,3.8-0.3,2.4-7.6c-1.4-6.9-7.6-20.6-5.5-5.9c1.2,9.9-3,8.6-5.7,10.9
		c-6.9,5.2,2.6,23.4,6.2,24.4c2.7,0.7,6,12.2,5.7,7.5c-0.2-4.7-0.5-12.3-4-13.9C109.4,291.2,109.4,278.5,116.6,277.9z"/>
	<path class="st0" d="M409.1,307.4c-3.7,0.9-3.8,5.9-4.9,10.4c-1.2,4.5,2.6-3.6,5.3-3.8c4.3-0.2,19.2-14.5,10.5-24.1
		c-3.3-2.9-4.3-7.6-2.4-11.6c1.4-10.6-5.2-4.6-6.1,5.2c-0.6,7.4-4,6.1,0.3,7.4C418.5,293,415.6,306.6,409.1,307.4z"/>
	<path class="st0" d="M247.3,244.9c-10.9,7.4-27,2.2-35.2-5.4c-5.9-5.5-15.4-11-7.7-1.8c14.3,17.1,28.2,23.4,49.2,6.8
		C256.2,242.3,253.5,240.6,247.3,244.9z"/>
	<path class="st0" d="M330,252.4c8.2,9,21.3,11.5,32.2,6.2c6.6-3,18.2-8.5,8.9-1.1c-21.9,17.6-39,11.3-50-10.9
		C319.7,243.8,324.7,246.8,330,252.4z"/>
	<path class="st0" d="M270.5,217.6c-1.3-3,3.6,0.8,6.8,5.6c5.7,8.5,1.8,20.9-9.6,30.4C274.2,242.7,275.3,229.4,270.5,217.6z"/>
	<path class="st0" d="M314.8,229.3c5-8.1-4.2-4.6-7.2,1.8c-4.6,9.5-6.7,24.4,4.8,31.9C313.1,263.5,305.4,244.6,314.8,229.3z"/>
	<path class="st0" d="M319.8,235.3c18.6-10.3,32.7-9,40.8-2.4c5.6,4.6,7.4,7.3,13.2,12.6c3.4,3.2,1.5-2.7-0.2-6
		c-7.7-13.5-23.5-20.1-38.6-16.2C323.1,226.2,317.1,236,319.8,235.3L319.8,235.3L319.8,235.3z"/>
	<path class="st0" d="M247.3,212.3c-8.6-4.7-18.9-5.4-28-1.8c-6.5,2-18.3,12.1-11,8.5c13.9-6.8,31.9-6.4,40,1.2
		c5.9,5.5,6.1,7.3,12.3,13C262.9,238,264.5,221.5,247.3,212.3z"/>
	<path class="st0" d="M260.7,237.1c-5.3-2.4-9.9-6.1-13.5-10.8c-7.9-9-21.7-9.8-30.6-1.9c-0.2,0.2-0.5,0.4-0.7,0.6
		c5.3-0.7,10.6-0.9,15.9-0.6c-1.1,0.9-1.7,2.2-1.8,3.6c0.5,4.4,4.3,7.7,8.8,7.7c3.1,0.5,6.2-0.9,8-3.6
		C251.1,234.8,255.8,236.4,260.7,237.1z"/>
	<path class="st0" d="M367.1,246.5c-5.9-11-19.2-15.8-30.8-11.2c-4.4,2.9-9.5,4.5-14.7,4.6c4.6,1.3,9.4,1.7,14.1,1
		c0.3,2.1,1.3,4,2.9,5.3c3.8,2.6,8.8,2.4,12.3-0.5c1.7-1.6,2-4.2,0.7-6.1C356.9,241.5,362.1,243.8,367.1,246.5z"/>
	<path class="st0" d="M398.6,240.5c-0.6-1.3-1.5-2.4-2.7-3.2c-6.2,2.2-12.3,4.8-18.3,7.8l0.8,2.1
		C385.3,245.5,392.1,243.2,398.6,240.5z"/>
	<path class="st0" d="M176.9,211.6c0.7-1.2,1.7-2.2,3-2.9c6,2.8,11.8,6,17.4,9.6l-1,2C189.6,217.9,183.1,215,176.9,211.6z"/>
	<path class="st0" d="M397.9,257.1c-0.7,1.2-1.7,2.2-2.9,3c-6-2.7-11.9-5.8-17.6-9.2l1-2C385.1,251,391.7,253.8,397.9,257.1z"/>
	<path class="st0" d="M175.9,228.2c0.6,1.3,1.5,2.4,2.6,3.2c6.3-2.1,12.4-4.6,18.4-7.4l-0.7-2.1
		C189.3,223.4,182.5,225.5,175.9,228.2z"/>
	<path class="st0" d="M302.6,385.6c-4.2-5.2-4.6-29.1-8.3-49.3c-2.5-13.5-8.1-9-12.2-3.4c-1.7,2.3-5.1,1.1-7-3.9
		c-3.2-8.5-10.5,2.1-13.9,11c-7.8,19.9-18,31.1-23.8,34.3c-2.5,1.4-4.2,5.2-1.7,4.5c6.6-2,9.3-1.9,7.6,7.1
		c-1.1,12.2,0.3,24.5,4,36.1c3.3,11.3,23.6,22.5,33.3,5c9.7-17.4,12.9-27.5,20.9-35.3c1.3,0.7,2.6,1.4,4,1.9
		C314,397.2,304.9,388.5,302.6,385.6z M273.8,422.3c-1,0.7-2.2,1.3-3.3,1.8c-6.6,1.4-10.5,1.4-18.2-8.5c-1.8-3.3-3-7-3.3-10.7
		c10.9,1.1,21.4,4.5,30.9,9.9C278.3,417.5,276.2,420.1,273.8,422.3z M276.4,355.5c-1.3-1.6-2-3.5-2-5.6c-1,4.6-0.1,4.9-1.2,5.7
		c-4.1,0.3-8.3-0.2-12.3-1.3c0.6-1.5,1.4-3,2.3-4.4c7.4-11,8.5-6.7,13.2-6.3c3.9,0.3,9.2-11.6,10.8-0.1c0.2,1.6,0.4,5.7,0.7,10.7
		C284.1,355,280.2,355.4,276.4,355.5z"/>
	<path class="st0" d="M316.2,363.4c5.4-19,6.5-38.9,3.1-58.3c-2.9,3.4-8,3.9-11.4,1c0,0,0,0,0,0c-2.6,1.4-5.5,1.9-8.3,1.6
		c-3.1,13.5-29.7,12.6-31.1-2.7c-3-0.2-5.9-1.2-8.3-2.9c-3.4,2.5-8.1,1.8-10.6-1.5c-0.4-0.5-0.7-1.1-0.9-1.6
		c-7,19.3-12.6,39-16.7,59.1c-2.1-18.8,1-37.8,9-54.9c2.3-4.4,4.8-8.7,7.6-12.8c0.9-3.6,3.1-6.6,6.2-8.5l0,0l0,0
		c0.9-0.4,1.5-0.4,1.3,0.2c-0.5,1.7-6.1,7.1-5.7,12.3c-0.2,2.9,2,5.3,4.9,5.5c2.3,0.1,4.3-1.2,5.1-3.3c1.5-3,5.2-4.3,8.2-2.8
		c2.1,1,3.4,3.2,3.4,5.5c0.5,7.3,6.8,12.8,14,12.3c5.7-0.4,10.6-4.4,11.9-10c1.2-4.3,6.3-6.6,8.8-2.7c0.8,2.3,2.6,4.1,4.8,5.1
		c3.3,0.9,11-1.8,3.3-14c-0.5-0.9,0.7,0,2,1.2l0,0l0,0c0.9,0.8,1.7,1.6,2.3,2.6c1.1,1.5,1.7,3.3,1.8,5.2c2.3,5.4,4.1,11,5.1,16.7
		C329.8,345.9,313.2,372.5,316.2,363.4z"/>
	<path class="st0" d="M455.5,198.5c0.5,19.3,8.7,37.5,22.8,50.7c0.7,1.3,0.6,2.9-0.3,4.1c-13.6,20.2-37.2,19.1-37.2,19.9
		c-2.7,57.8-23,66.3-29.1,67.8c0-0.1,6,32.8,13.8,46c0.8,1.3,0.4,3.1-0.9,3.9c-0.2,0.1-0.4,0.2-0.7,0.3c-7.7,2.7-27.1,5.6-35.5,2
		c-2.4,7-6.2,17.9-8.4,23.2c4.5,1.2,107.7,31,155.2,45.6c15.5,4.8-11.1,4.4-28.2-0.8c-22.8-6.9-123.3-32.8-125.4-33.4
		c50,59.1,53.1,66.4,49.3,71.9c-1.3,1.9-29.8,25.5-31,32.8c5.6,3.8,38.7,35,41.3,37.2c9,7.5,15.2,18.9,4.7,11.7
		c-2.4-1.7-52.3-38.7-53.1-48.2c-1-11.6,29.2-38,30.4-39.2c-3.5-7-50.7-60.9-50.7-60.9c-4.7,9.9-10.2,19.4-16.4,28.5
		c20.9,31.9,30,70,25.8,107.9c-3.1,20.3-6.3-8.4-6.1-16.2c0.7-39.2-6.6-57.5-19.9-76.7c5.2,22.3-19.7,91.6-33.3,93.1
		c-0.4,0.1-0.8,0.1-1.2,0.1c-4.1,0-28.3-39.8-32.2-46.2c-1.6,2.8-3.4,5.4-5.4,8c-6.7,7.8-9,8.2-2.3,18.7c8,12.5,18.8,26.4,10.9,32.8
		c-11.2,9.1-41.1,7.6-53.3,1.4c-12.2-6.1-9.3-8.1-1.1-21.3c10.3-16.4,10.6-22.1,3.4-28.3c-3.3-3.4-6.2-7.3-8.5-11.4
		c-26.8,32.3-27.4,47.5-35.3,49.1c-4.9,1-4.7,0.1-6.6-2.5c-13.5-24.6-21.9-51.8-24.6-79.8c-6.2,11.3-9.4,28.1-7.4,63.6
		c0.6,11.4-1,37.6-4.7,20.4c-7.8-37.5-2.1-76.6,16.3-110.2c-11.5-14.2-21.4-29.7-29.6-46c-2.2,3.7-33,46.5-40.6,63.1
		c38.7,33.1,37.1,37,35.4,41.1c-3.1,5-6.7,9.8-10.8,14.1c-7.9,9.6-40.7,42.2-40.9,40c-0.9-6.5,5.9-16.8,31.5-47.8
		c2.7-3.3,7.4-8.8,9.3-11.1c-4.3-5.4-16.4-16-31.1-29.7c-12.3-11.4,33.3-65.8,36.3-70.1c-42.6,8.1-76.3,16.4-93.3,19.4
		c-17,3-63.3,5.4-15.5-5C71,421.2,85,417.8,132.7,404.3c0.6-0.2-3.9-16.7-6.4-26.1c-12-1-23.7-4.9-33.9-11.3
		c-1.3-0.8-3.6-1.8-1.2-4.8c6.9-8.2,11.9-17.9,14.8-28.2c-27.6-0.7-25.1-85.7-24.9-88.6c-9.2-5.7-20.2-14.6-20.3-19.9
		c0.1-0.9,0.5-1.8,1.1-2.4c28.9-29.7,8.8-128.5,97-193.3C216.7-12.8,318.3-9,380.6,36.5c26.9,19.7,127.5,98.2,176.7,104.1
		C561.1,141.1,555.8,214.4,455.5,198.5z M92.5,182.1c4.6,1.5,21.8,10.2,58.8-2.7c0.5-1.9,1-3.8,1.5-5.8c-12.4,4.4-57.8-5.7-58-5.9
		C94.1,172.6,93.4,177.4,92.5,182.1z M85.2,206.9c5.3,2.4,22.4,8.8,61.9-14.2c0.7-2,1.4-4.1,2.1-6.3l-0.4,0.1l0-0.1
		c-13.7,6.6-47.2,9.8-58.3,5l-0.1,0.1C89.2,196.8,87.4,202,85.2,206.9z M122.7,233.8c10-8.8,17.3-20.2,21.3-32.9
		c-25,18.3-55.4,17.1-65.6,16.9c-2.2,3.5-5.1,6.4-8.5,8.6C71.2,228.8,98.8,253.5,122.7,233.8L122.7,233.8z M122.7,369.5
		c-2.5-11.9-4.1-24-4.8-36.2c-1.8,0.6-3.7,1-5.6,1.1c-1.5,9.9-5.2,19.4-10.7,27.8C108.1,365.8,115.3,368.2,122.7,369.5L122.7,369.5z
		 M233.6,505.4c-11.8-2.7-46.5-21.4-54.9-30.4c-8.3,25.7,3.3,66.7,16.5,82.2C204.5,544.4,234.7,505.6,233.6,505.4z M346.2,475
		c-9.9,11.8-41.7,29.6-59.9,31.1c1.6,3.2,30.2,47.2,35.6,51.1C334.2,542.7,343.4,504.3,346.2,475L346.2,475z M404.9,341.6
		c-1.3,0-2.6-0.1-3.9-0.2c-1,4.3-7.2,29.7-11.2,43.2c8.2,2,16.7,2.1,24.9,0.3C409.6,370.9,406.3,356.4,404.9,341.6L404.9,341.6z
		 M432.8,272.2c-26.9-2.5-34.2-41.3-36.2-70.1l-0.8,0.4l-2.2,8.4c-0.4,1.4-1.8,2.2-3.1,1.8c-0.3-0.1-0.6-0.2-0.9-0.5l-13.4-11
		l-5.6,6.9c-0.8,0.9-2.1,1.2-3.2,0.6l-10.8-5.8l-1.2,10.7c-0.1,1.4-1.3,2.4-2.6,2.3c-0.3,0-0.6-0.1-0.8-0.2l-14.3-5.7l-12,9.4
		c-1,0.9-2.6,0.8-3.4-0.2c-0.1-0.1-0.2-0.3-0.3-0.5l-10.7-18.2c-0.7-1.2-0.2-2.8,1-3.5c0.5-0.3,1-0.4,1.5-0.3l10.3,1.4l-1.5-14.9
		c-19.4-0.4-38.7-2.5-57.7-6.3l2.5,8.8l14.5,0.7c1.5,0.2,2.6,1.6,2.4,3.2c-0.1,0.4-0.2,0.7-0.4,1.1l-16.9,23
		c-0.8,1.2-2.3,1.5-3.5,0.8c-0.4-0.3-0.7-0.6-0.9-1.1l-7.8-14.5l-8.5,2.8c-1.3,0.4-2.6-0.2-3.2-1.3l-7.3-14.8l-7.5,5.9
		c-1.1,0.9-2.8,0.7-3.7-0.4c0,0-0.1-0.1-0.1-0.1l-8.7-11.9l-25.9,13.5c-1.3,0.7-2.8,0.3-3.6-1c-0.4-0.7-0.4-1.5-0.2-2.2l5.2-16.3
		l-13.1-13.3c-1-1.1-0.9-2.8,0.2-3.8c0.5-0.5,1.3-0.7,2-0.7l16.9,2.1c-9.1-3.5-18-7.5-26.7-11.9c-21.4,74.5-31.2,121.2-80.3,104
		c-1.4-0.5-5.2,75.2,24.4,76.6c5.8,0.3,11.1-5.6,12.9-6.3c1.9,0.9-8,58.4,50.8,136.4c24.1,31.9,61.5,40.9,95.9,38.3
		c31-1.8,54.1-21.9,68.5-37.4c22.2-23.9,46.3-98,48.9-112.4c6.9-38.6-0.5-10.6,13.4-10.8C425,333.4,434,287.9,432.8,272.2
		L432.8,272.2z M236.5,155.9l-8,7.5c-1,1-2.6,1-3.6,0l-18.2-17l1.8,14.3c0.2,1.4-0.7,2.7-2.1,3c-0.3,0-0.6,0-0.8,0l-18.3-2.3l8.9,9
		c0.7,0.7,0.9,1.7,0.6,2.7l-3.7,11.7l22.2-11.6c1.2-0.6,2.6-0.3,3.4,0.8l8.4,11.5l7.9-6.2c1.1-0.9,2.7-0.8,3.6,0.3
		c0.1,0.2,0.3,0.4,0.4,0.6l7.7,15.7l8.4-2.8c1.2-0.3,2.5,0.2,3.2,1.3l6.9,12.8l11.5-15.6l-11.4-0.5c-1.1-0.1-2.1-0.8-2.4-1.9
		l-5.1-18.2l-9.1,2.2c-1.1,0.3-2.3-0.2-2.9-1.3 M329.6,200.8c0.2,1.4-0.8,2.6-2.1,2.8c-0.2,0-0.5,0-0.7,0l-8.4-1.2l6.6,11.2
		l10.8-8.5c0.7-0.6,1.7-0.7,2.5-0.4l12.5,5l1.2-11.1c0-1.3,1.2-2.4,2.5-2.3c0.4,0,0.8,0.1,1.2,0.4l12.3,6.6l5.8-7.3
		c0.7-1.1,2.2-1.3,3.3-0.6c0.1,0.1,0.2,0.2,0.3,0.2l12.3,10.1l1.5-5.8c0.2-0.7,0.7-1.3,1.4-1.7l11.9-5.4l-8.9-3.6
		c-1.2-0.5-1.8-1.7-1.5-3l3.3-12.7L383,186.3c-1,0.9-2.6,0.8-3.6-0.2c-0.2-0.2-0.4-0.5-0.5-0.8l-3.8-10.9l-10,10.3
		c-0.5,1-1.8,1.4-2.8,0.9c-0.5-0.2-0.9-0.7-1-1.2l-9.5-12.7l-6.6,19.1c-0.4,1.8-2,2.5-3.9,1.2l-13.6-10.3L329.6,200.8z M448.8,208.6
		c-0.5-3.7-0.9-7.5-1.1-11.5c-11.8-3.4-36.1-11.5-40.9-12.7c0,0.4,0.1,2.1,0.3,4.1l4.9,2c1.3,0.6,1.8,2.2,1.2,3.5
		c-0.2,0.5-0.6,0.9-1.1,1.2l-3.7,1.7C420.9,203.2,434.6,207.2,448.8,208.6L448.8,208.6z M408.2,200.9c0.2,2.6,0.5,8.3,0.8,11.1
		c12.1,11.8,33.6,20.1,44.8,18c0,0,0.1,0,0.1,0c-1.3-3.7-2.4-7.4-3.2-11.2C435.2,216.6,420.6,210.5,408.2,200.9L408.2,200.9z
		 M408.2,217.4c1.7,60,48,47.8,59.9,36.3c-4.4-4.6-8.1-9.9-10.9-15.7C436.6,241.5,418.3,225.9,408.2,217.4L408.2,217.4z
		 M543.3,162.4c2.6-4.8-11.1,3.2-12.9,2.2c-1.5-0.9,8.9-8.8,5.8-11.5c-1.6-1.4-25.9,10.7-28.2,9.2c-3-2,14.4-12.8,12-14.3
		c-3-1.9-36.4,12.9-39.2,8.8c-2-2.9,11.9-7,23.1-13.6c4.4-2.6,6.7-4.9-3.5-7.8c-27.4-13.3-53.2-29.5-77-48.4
		C336.1,15.2,273.2-1,193,27.5c-29.5,10.5-62.4,44.9-84.7,93.2c-5,12.2-9.1,24.7-12.1,37.5c0.1,0,45.5,12.9,58.2,9.1
		c2-9.1,3.3-15.2,4.8-26.3c-26.9-22.8-30-32.7-31.1-34.5c-1.1-1.8-0.2-3.7,5.9,1.7c20,17,42.9,30.1,67.6,38.9l-0.9-7.4
		c-0.3-1.4,0.5-2.8,1.9-3.1c0.9-0.2,1.9,0.1,2.5,0.8l18,16.9c1.9,0.6,3.8,1.1,5.7,1.6l6.6-6.2c0.9-1,2.5-1.1,3.5-0.2
		c0.3,0.2,0.5,0.5,0.6,0.8l5.7,9.8c33.2,7.5,67.1,11.5,101.2,12l2.3-6.6c0.5-1.3,2-2,3.3-1.5c0.4,0.2,0.8,0.4,1.1,0.8l5.4,7.2
		c4.5-0.1,8.7-0.2,12.3-0.5l3.6-3.8c0.8-1,2.3-1.3,3.3-0.5c0.5,0.3,0.8,0.8,0.9,1.4l0.7,2.1c2.3-0.3,4.3-0.7,5.8-0.8
		c11.3-1.2,57.3-24.3,49.6-16c-2.1,2.3-7.9,7-29.2,19.9C468.1,201.4,525.8,194.3,543.3,162.4L543.3,162.4z"/>
	<path class="st0" d="M163.1,90c-5,3,41.2,43.8,81.1,49.7c40.1,5.9,7.3-2.4-21-12.1C197.9,119.1,167,87.7,163.1,90z"/>
	<path class="st0" d="M189,70.5c-5.3,3.8,37.4,54.6,122.5,64.2c6.9,0.8,7.4-2.8-16.6-9.1c-49.9-13-64.2-20-92.2-44.6
		C197.1,76.1,193.3,67.5,189,70.5z"/>
</g>
</svg>
